<svg width="9" height="10" viewBox="0 0 9 10" fill="none" xmlns="http://www.w3.org/2000/svg">
<circle cx="1" cy="1" r="1" fill="#61481C"/>
<path d="M6.79587 7.11056C6.79587 7.79632 6.52345 8.454 6.03854 8.9389C5.55364 9.42381 4.89597 9.69623 4.2102 9.69623C3.52444 9.69623 2.86677 9.42381 2.38187 8.9389C1.89696 8.454 1.62454 7.79633 1.62454 7.11057L4.2102 7.11056H6.79587Z" fill="#61481C"/>
<path d="M9 1C9 1.55228 8.55228 2 8 2C7.44772 2 7 1.55228 7 1C7 0.447715 7.44772 0 8 0C8.55228 0 9 0.447715 9 1Z" fill="#61481C"/>
</svg>
